<svg width="100" height="100" viewBox="0 0 100 100" fill="none" xmlns="http://www.w3.org/2000/svg">
<g clip-path="url(#clip0_12_375)">
<path d="M50 93.75C38.3968 93.75 27.2688 89.1406 19.0641 80.9359C10.8594 72.7312 6.25 61.6032 6.25 50C6.25 38.3968 10.8594 27.2688 19.0641 19.0641C27.2688 10.8594 38.3968 6.25 50 6.25C61.6032 6.25 72.7312 10.8594 80.9359 19.0641C89.1406 27.2688 93.75 38.3968 93.75 50C93.75 61.6032 89.1406 72.7312 80.9359 80.9359C72.7312 89.1406 61.6032 93.75 50 93.75ZM50 100C63.2608 100 75.9785 94.7322 85.3553 85.3553C94.7322 75.9785 100 63.2608 100 50C100 36.7392 94.7322 24.0215 85.3553 14.6447C75.9785 5.26784 63.2608 0 50 0C36.7392 0 24.0215 5.26784 14.6447 14.6447C5.26784 24.0215 0 36.7392 0 50C0 63.2608 5.26784 75.9785 14.6447 85.3553C24.0215 94.7322 36.7392 100 50 100Z" fill="black"/>
<path d="M43.7627 68.75C43.7627 67.9292 43.9244 67.1165 44.2384 66.3582C44.5525 65.5999 45.0129 64.9109 45.5933 64.3306C46.1736 63.7502 46.8626 63.2898 47.6209 62.9758C48.3792 62.6617 49.1919 62.5 50.0127 62.5C50.8335 62.5 51.6462 62.6617 52.4045 62.9758C53.1628 63.2898 53.8517 63.7502 54.4321 64.3306C55.0125 64.9109 55.4729 65.5999 55.7869 66.3582C56.101 67.1165 56.2627 67.9292 56.2627 68.75C56.2627 70.4076 55.6042 71.9973 54.4321 73.1694C53.26 74.3415 51.6703 75 50.0127 75C48.3551 75 46.7654 74.3415 45.5933 73.1694C44.4212 71.9973 43.7627 70.4076 43.7627 68.75ZM44.3752 31.2188C44.292 30.4303 44.3754 29.6331 44.6202 28.8789C44.865 28.1248 45.2655 27.4305 45.7959 26.8412C46.3263 26.2518 46.9747 25.7806 47.699 25.458C48.4233 25.1354 49.2073 24.9688 50.0002 24.9688C50.7931 24.9688 51.5771 25.1354 52.3014 25.458C53.0257 25.7806 53.674 26.2518 54.2045 26.8412C54.7349 27.4305 55.1354 28.1248 55.3802 28.8789C55.625 29.6331 55.7084 30.4303 55.6252 31.2188L53.4377 53.1375C53.3642 53.9986 52.9702 54.8007 52.3337 55.3852C51.6971 55.9697 50.8644 56.2941 50.0002 56.2941C49.136 56.2941 48.3033 55.9697 47.6667 55.3852C47.0302 54.8007 46.6362 53.9986 46.5627 53.1375L44.3752 31.2188Z" fill="black"/>
</g>
<defs>
<clipPath id="clip0_12_375">
<rect width="100" height="100" fill="white"/>
</clipPath>
</defs>
</svg>
