<svg width="7" height="13" viewBox="0 0 7 13" fill="none" xmlns="http://www.w3.org/2000/svg">
<path fill-rule="evenodd" clip-rule="evenodd" d="M0.146856 0.146877C0.19329 0.100319 0.248451 0.0633803 0.309181 0.0381768C0.369911 0.0129733 0.435015 0 0.500766 0C0.566516 0 0.631621 0.0129733 0.692351 0.0381768C0.75308 0.0633803 0.808242 0.100319 0.854675 0.146877L6.85314 6.14617C6.8997 6.19261 6.93663 6.24778 6.96183 6.30852C6.98703 6.36926 7 6.43437 7 6.50013C7 6.56589 6.98703 6.631 6.96183 6.69174C6.93663 6.75248 6.8997 6.80765 6.85314 6.85409L0.854675 12.8534C0.760813 12.9473 0.633508 13 0.500766 13C0.368024 13 0.240719 12.9473 0.146856 12.8534C0.0529933 12.7595 0.000261717 12.6322 0.000261717 12.4994C0.000261717 12.3667 0.0529933 12.2393 0.146856 12.1455L5.79242 6.50013L0.146856 0.854794C0.100305 0.808353 0.0633711 0.753184 0.0381711 0.692446C0.0129711 0.631708 0 0.566595 0 0.500835C0 0.435075 0.0129711 0.369962 0.0381711 0.309224C0.0633711 0.248486 0.100305 0.193317 0.146856 0.146877Z" fill="black"/>
</svg>
